Genre:Action | Adventure | Fantasy
Language:English
IMDb:http://www.imdb.com/title/tt1298650/
Source:Piraty.Karibskogo.morya.4.2011.D.TS/Imagine Thanks!
Subtitles:Romana

Format : MPEG-4
Format profile : Base Media
Codec ID : isom
File size : 1.27 GiB
Duration : 2h 7mn
Overall bit rate : 1 428 Kbps

Video
ID : 1
Format : AVC
Format/Info : Advanced Video Codec
Format profile : High@L4.1
Format settings, CABAC : Yes
Format settings, ReFrames : 3 frames
Codec ID : avc1
Codec ID/Info : Advanced Video Coding
Duration : 2h 7mn
Bit rate mode : Variable
Bit rate : 1 193 Kbps
Maximum bit rate : 4 496 Kbps
Width : 720 pixels
Height : 272 pixels
Display aspect ratio : 2.647
Frame rate mode : Constant
Frame rate : 23.976 fps
Color space : YUV
Chroma subsampling : 4:2:0
Bit depth : 8 bits
Scan type : Progressive
Bits/(Pixel*Frame) : 0.254
Stream size : 1.07 GiB (84%)
Writing library : x264

Audio
ID : 2
Format : AAC
Format/Info : Advanced Audio Codec
Format version : Version 4
Format profile : LC
Format settings, SBR : No
Codec ID : 40
Duration : 2h 7mn
Bit rate mode : Variable
Bit rate : 224 Kbps
Maximum bit rate : 271 Kbps
Channel(s) : 2 channels
Channel positions : Front: L R
Sampling rate : 48.0 KHz
Stream size : 204 MiB (16%)


Plot:
Jack Sparrow and Barbossa embark on a quest to find the elusive fountain of youth, only to discover that Blackbeard and his daughter are after it too.


screenshots:
 
http://img835.imageshack.us/img835/1817/39675932.png
 
http://img824.imageshack.us/img824/6626/62531086.png
 
http://img543.imageshack.us/img543/599/29019959.png
 
http://img705.imageshack.us/img705/1652/11429659.png
 
http://img827.imageshack.us/img827/613/65804954.png